<svg xmlns="http://www.w3.org/2000/svg" width="17.15" height="16.37" viewBox="0 0 17.15 16.37">
  <title>i_linkedin</title>
  <g>
    <path d="M2.08,0A1.92,1.92,0,1,0,2,3.82h0A1.92,1.92,0,1,0,2.08,0Z" style="fill: #fff"/>
    <path d="M.23,5.32H3.9V16.37H.23Z" style="fill: #fff"/>
    <path d="M12.92,5.05A4.6,4.6,0,0,0,9.61,6.92V5.32H5.91V16.37h3.7V10.19a2.39,2.39,0,0,1,.13-.89A2,2,0,0,1,11.62,8c1.32,0,1.86,1,1.86,2.5v5.92h3.67V10C17.15,6.63,15.34,5.05,12.92,5.05Z" style="fill: #fff"/>
  </g>
</svg>
