<svg xmlns="http://www.w3.org/2000/svg" width="18.74" height="15.34" viewBox="0 0 18.74 15.34">
  <title>i_twitter</title>
  <path d="M7,15.34a16.25,16.25,0,0,1-2.48-.2,11.64,11.64,0,0,1-3.4-1.23L0,13.3l1.2-.4c1.32-.43,2.12-.7,3.11-1.12A4.11,4.11,0,0,1,2.18,9.32L1.9,8.47l.23,0a4.57,4.57,0,0,1-.52-.64A4,4,0,0,1,.94,5.52L1,4.77,1.44,5A4.26,4.26,0,0,1,1,3.82,4.31,4.31,0,0,1,1.49.93L1.88.22l.51.62A9.51,9.51,0,0,0,8.56,4.31a3.64,3.64,0,0,1,.22-1.95A3.68,3.68,0,0,1,10.27.65,4.44,4.44,0,0,1,12.87,0a4.14,4.14,0,0,1,2.55,1.05,8.6,8.6,0,0,0,.94-.31l.72-.27L18.15.12l-.69,2h.14l1.14-.05L18.07,3,18,3.06c-.05.08-.12.18-1.05,1.42a1.78,1.78,0,0,0-.32,1.14A10.84,10.84,0,0,1,16,10,7.65,7.65,0,0,1,14,13a9,9,0,0,1-4.3,2.09A13.64,13.64,0,0,1,7,15.34Z" style="fill: #fff"/>
</svg>
